<?xml version="1.0" encoding="iso-8859-1"?>
<!-- Generator: Adobe Illustrator 24.0.1, SVG Export Plug-In . SVG Version: 6.00 Build 0)  -->
<svg version="1.1" id="&#x56FE;&#x5C42;_1" xmlns="http://www.w3.org/2000/svg" xmlns:xlink="http://www.w3.org/1999/xlink" x="0px"
	 y="0px" viewBox="0 0 44.084 49.002" style="enable-background:new 0 0 44.084 49.002;" xml:space="preserve">
<g style="display:none;">
	<defs>
		<rect id="SVGID_1_" x="-450.433" y="-471.764" width="738.88" height="657.84"/>
	</defs>
	<clipPath id="SVGID_2_" style="display:inline;">
		<use xlink:href="#SVGID_1_"  style="overflow:visible;"/>
	</clipPath>
	<path style="display:inline;clip-path:url(#SVGID_2_);fill:#5CF4A1;" d="M-32.303-311.206c0,57.172,30.504,110.004,80.016,138.59
		c49.515,28.586,110.519,28.586,160.031,0c49.515-28.586,80.015-81.418,80.015-138.59c0-88.382-71.648-160.031-160.031-160.031
		S-32.303-399.588-32.303-311.206L-32.303-311.206z M-32.303-311.206"/>
	<path style="display:inline;clip-path:url(#SVGID_2_);fill:#58E000;" d="M248.15,12.294c-0.019,10.715-8.699,19.395-19.414,19.418
		H112.123c-10.719,0.043-19.391,8.735-19.414,19.453c0,10.723,8.691,19.418,19.414,19.418h38.871
		c10.73,0.02,19.414,8.727,19.414,19.454c-0.02,10.714-8.699,19.394-19.414,19.418H99.385
		c-108.368,93.617-266.657,101.136-383.411,18.214C-400.78,44.744-445.819-107.186-393.119-240.346h-38.872
		c-10.386-0.477-18.562-9.035-18.562-19.434c0-10.398,8.176-18.961,18.562-19.437h77.825c9.664,0.004,17.855-7.098,19.226-16.664
		c1.367-9.563-4.504-18.68-13.777-21.387l0.613-0.777h-45.015c-7.157,0.328-13.914-3.305-17.59-9.454
		c-3.676-6.148-3.676-13.82,0-19.968c3.676-6.149,10.433-9.778,17.59-9.45h81.304c107.938-97.23,268.809-106.789,387.496-23.019
		C194.369-296.167,239.256-141.393,183.802-7.12h45.059C239.525-7.03,248.131,1.63,248.15,12.294L248.15,12.294z M248.15,12.294"/>
</g>
<path style="fill:#EC4141;" d="M31.215,18.156c-0.16-0.035-0.326,0.015-0.44,0.131c-0.115,0.116-0.163,0.283-0.126,0.442
	c0.394,1.832,0.98,5.089,1.241,7.462c0.452,4.001-3.55,7.742-6.661,8.792c-4.898,1.686-10.547-2.322-11.82-6.998
	c-1.463-5.465,1.571-12.125,6.623-14.295c0.559-0.261,1.119-0.483,1.685-0.744c1.158-0.528,0.598-1.387,0.407-2.176
	c-0.521-2.169-0.82-4.338,0.299-6.362c1.686-3.034,6.063-5.426,9.466-3.97c1.482,0.587,2.921,1.275,4.307,2.062
	c1.167,0.75,1.7,2.18,1.31,3.512c-0.712,1.909-2.583,2.36-4.568,1.202c-0.701-0.448-1.426-0.86-2.169-1.235
	c-0.645-0.342-1.425-0.309-2.039,0.087c-0.614,0.396-0.965,1.093-0.919,1.822c0.035,0.75,0.116,1.498,0.242,2.239
	c0.147,0.896,0.807,1.622,1.686,1.851c1.244,0.275,2.465,0.645,3.652,1.107c4.822,2.131,8.27,5.611,9.879,10.815
	c2.99,9.651-2.621,19.27-10.929,22.94c-4.525,2.139-9.63,2.716-14.518,1.642C10.845,46.821,5.038,42.008,2.11,35.459
	c-2.245-5.089-2.844-10.287-1.088-15.789C3.382,12.31,8.097,7.29,15.279,4.523c1.3-0.474,2.754,0.031,3.479,1.209
	c0.393,0.585,0.535,1.303,0.394,1.993c-0.141,0.69-0.554,1.295-1.145,1.678c-1.016,0.619-2.065,1.182-3.143,1.685
	c-3.963,2.017-6.432,5.312-8.003,9.428c-3.073,8.003,1.158,17.285,8.156,20.918c6.432,3.365,15.23,2.017,19.982-3.518
	c2.83-3.237,3.908-7.649,2.888-11.826C37.253,22.908,33.601,18.722,31.215,18.156L31.215,18.156z M24.58,18.9
	c-0.047-0.212-0.181-0.396-0.371-0.502c-0.19-0.107-0.416-0.128-0.622-0.058c-4.135,1.425-5.904,5.872-3.97,9.498
	c0.738,1.328,2.253,2.023,3.741,1.718c1.762-0.522,2.996-1.794,2.736-3.442C25.725,23.691,25.108,21.292,24.58,18.9L24.58,18.9z
	 M24.58,18.9"/>
</svg>
